<svg width="720" height="220" viewBox="0 0 720 220" fill="none" xmlns="http://www.w3.org/2000/svg" role="img" aria-labelledby="title desc">
  <title id="title">SOJIF Consulting logo</title>
  <desc id="desc">Premium horizontal SOJIF Consulting logo.</desc>
  <rect x="8" y="8" width="204" height="204" rx="46" fill="#0F172A"/>
  <path d="M54 158V75C54 63.8 63.1 54 75 54H156" stroke="url(#frame)" stroke-width="13" stroke-linecap="round"/>
  <path d="M72 144C92.5 144 106.8 135.1 112.9 119.7L119.5 102.6C126.5 84.6 141.9 73 164 73" stroke="#FFFFFF" stroke-width="17" stroke-linecap="round"/>
  <path d="M72 108C88.2 108 100.4 99.2 106.9 84" stroke="#60A5FA" stroke-width="13" stroke-linecap="round"/>
  <path d="M82 160H166" stroke="#F59E0B" stroke-width="13" stroke-linecap="round"/>
  <path d="M141 108L168 81L168 116" stroke="#10B981" stroke-width="13" stroke-linecap="round" stroke-linejoin="round"/>
  <circle cx="74" cy="73" r="8" fill="#F59E0B"/>
  <text x="250" y="112" fill="#0F172A" font-family="Inter, Arial, Helvetica, sans-serif" font-size="74" font-weight="850" letter-spacing="1">SOJIF</text>
  <text x="253" y="151" fill="#1D4ED8" font-family="Inter, Arial, Helvetica, sans-serif" font-size="24" font-weight="800" letter-spacing="3">CONSULTING</text>
  <text x="253" y="184" fill="#64748B" font-family="Inter, Arial, Helvetica, sans-serif" font-size="20" font-weight="600">Droit &#8226; Finance &#8226; D&#233;veloppement</text>
  <defs>
    <linearGradient id="frame" x1="54" y1="158" x2="176" y2="42" gradientUnits="userSpaceOnUse">
      <stop stop-color="#2563EB"/>
      <stop offset="1" stop-color="#60A5FA"/>
    </linearGradient>
  </defs>
</svg>
